<svg width="33" height="32" viewBox="0 0 33 32" fill="none" xmlns="http://www.w3.org/2000/svg">
<rect width="33" height="32" rx="4" fill="#FFF7F7"/>
<path d="M9.15385 8.5C8.98044 8.5 8.81413 8.57183 8.69151 8.6997C8.56889 8.82757 8.5 9.00099 8.5 9.18182C8.5 14.7495 9.84562 18.3673 11.9602 20.5736C12.021 20.6369 12.0932 20.6871 12.1726 20.7212C12.252 20.7554 12.3372 20.7729 12.4231 20.7727H18.9615C19.0475 20.7729 19.1326 20.7554 19.212 20.7212C19.2914 20.6871 19.3636 20.6369 19.4245 20.5736C20.1309 19.8279 20.7233 18.9734 21.1807 18.04C22.4805 17.9977 23.5411 17.6295 24.2969 16.9409C25.1012 16.2045 25.5 15.1286 25.5 13.9545C25.5 13.0982 25.3339 12.2268 24.7258 11.6186C24.4063 11.3086 23.9987 11.1153 23.5646 11.0677C23.32 11.0372 23.0728 11.0381 22.8284 11.0705C22.8659 10.4677 22.8846 9.83818 22.8846 9.18182C22.8846 9.00099 22.8157 8.82757 22.6931 8.6997C22.5705 8.57183 22.4042 8.5 22.2308 8.5H9.15385ZM23.2978 12.3864C23.3945 12.3849 23.4905 12.4035 23.5803 12.4409C23.6701 12.4784 23.7519 12.534 23.8209 12.6045C24.0302 12.8132 24.1923 13.3041 24.1923 13.9545C24.1923 14.8259 23.9373 15.4545 23.4338 15.9127C23.0625 16.2509 22.5237 16.5086 21.7835 16.6218C22.2125 15.4259 22.5276 14.0486 22.7081 12.4709C22.8994 12.4116 23.0983 12.3831 23.2978 12.3864ZM9.15385 22.1364C8.98044 22.1364 8.81413 22.2082 8.69151 22.3361C8.56889 22.4639 8.5 22.6374 8.5 22.8182C8.5 22.999 8.56889 23.1724 8.69151 23.3003C8.81413 23.4282 8.98044 23.5 9.15385 23.5H22.2308C22.4042 23.5 22.5705 23.4282 22.6931 23.3003C22.8157 23.1724 22.8846 22.999 22.8846 22.8182C22.8846 22.6374 22.8157 22.4639 22.6931 22.3361C22.5705 22.2082 22.4042 22.1364 22.2308 22.1364H9.15385Z" fill="#FF7878"/>
</svg>
