<svg width="33" height="32" viewBox="0 0 33 32" fill="none" xmlns="http://www.w3.org/2000/svg">
<rect width="33" height="32" rx="4" fill="#FFF7F7"/>
<path d="M17.4518 9.34011L17.8334 8.77556L16.7201 8L16.3385 8.56546C15.7427 9.44699 15.6374 10.2838 15.7571 10.9789C15.8714 11.6494 16.1873 12.1373 16.3403 12.362L16.343 12.3665C16.4816 12.5693 16.631 12.7895 16.6859 13.101C16.7372 13.3933 16.7156 13.8501 16.3187 14.5124L15.9677 15.0979L17.1215 15.8104L17.4725 15.2249C18.0161 14.3169 18.1313 13.5258 18.0152 12.8617C17.9081 12.2496 17.6129 11.8203 17.4698 11.6111L17.45 11.5828C17.3303 11.4065 17.1512 11.1169 17.0864 10.7442C17.027 10.3952 17.0594 9.92201 17.4518 9.34011ZM9.8666 17.6073V17.6091H8.9C8.78181 17.6091 8.66478 17.6328 8.55558 17.6787C8.44639 17.7246 8.34718 17.7919 8.2636 17.8767C8.18003 17.9615 8.11374 18.0622 8.06851 18.1731C8.02328 18.2839 8 18.4027 8 18.5226C8 18.6426 8.02328 18.7614 8.06851 18.8722C8.11374 18.9831 8.18003 19.0838 8.2636 19.1686C8.34718 19.2534 8.44639 19.3207 8.55558 19.3666C8.66478 19.4125 8.78181 19.4361 8.9 19.4361H9.8666C9.86755 20.6469 10.3421 21.8077 11.1859 22.6635C12.0297 23.5193 13.1737 24 14.3666 24H19.7C20.8929 24 22.0369 23.5193 22.8807 22.6635C23.7245 21.8077 24.199 20.6469 24.2 19.4361H25.1C25.3387 19.4361 25.5676 19.3399 25.7364 19.1686C25.9052 18.9973 26 18.7649 26 18.5226C26 18.2804 25.9052 18.048 25.7364 17.8767C25.5676 17.7054 25.3387 17.6091 25.1 17.6091H24.2V17.6073H9.8666ZM13.5215 10.197L13.1399 10.7624C12.8654 11.168 12.8501 11.4841 12.8888 11.707C12.9311 11.9546 13.0508 12.151 13.1381 12.2788L13.1543 12.3017C13.2641 12.4625 13.5062 12.8142 13.5944 13.3157C13.6898 13.8638 13.5908 14.5051 13.1606 15.2249L12.8096 15.8095L11.6558 15.0979L12.0068 14.5133C12.2912 14.0383 12.2957 13.7322 12.2651 13.5541C12.2291 13.3559 12.1346 13.2143 12.0284 13.059C11.794 12.7254 11.6337 12.3443 11.5586 11.9418C11.4614 11.3727 11.5496 10.693 12.0266 9.98687L12.4091 9.42232L13.5215 10.197ZM21.7592 10.7624L22.1408 10.197L21.0275 9.42232L20.6459 9.98687C20.1689 10.693 20.0798 11.3727 20.1779 11.9418C20.2715 12.4871 20.5271 12.8827 20.6477 13.059C20.7539 13.2143 20.8484 13.3559 20.8835 13.555C20.9141 13.7322 20.9105 14.0392 20.6252 14.5124L20.2742 15.0979L21.4289 15.8104L21.7799 15.2249C22.2101 14.5051 22.3091 13.8638 22.2128 13.3157C22.1423 12.9486 21.9919 12.6022 21.7727 12.3017L21.7574 12.2788C21.6346 12.1087 21.5496 11.9136 21.5081 11.707C21.4694 11.4841 21.4847 11.168 21.7592 10.7624Z" fill="#FF7878"/>
</svg>
