<svg width="33" height="32" viewBox="0 0 33 32" fill="none" xmlns="http://www.w3.org/2000/svg">
<rect width="33" height="32" rx="4" fill="#FFF7F7"/>
<path d="M25.3077 14.2969H24.5834C24.4094 12.439 23.5352 10.7119 22.1323 9.45449C20.7294 8.19707 18.899 7.5 17 7.5C15.101 7.5 13.2706 8.19707 11.8677 9.45449C10.4648 10.7119 9.59059 12.439 9.41663 14.2969H8.69231C8.5087 14.2969 8.33261 14.3685 8.20277 14.4961C8.07294 14.6237 8 14.7967 8 14.9771C8.00304 16.5947 8.45614 18.1808 9.31029 19.5637C10.1644 20.9466 11.3871 22.0738 12.8462 22.8233V23.1396C12.8462 23.5004 12.992 23.8464 13.2517 24.1015C13.5114 24.3567 13.8635 24.5 14.2308 24.5H19.7692C20.1365 24.5 20.4886 24.3567 20.7483 24.1015C21.008 23.8464 21.1538 23.5004 21.1538 23.1396V22.8233C22.6129 22.0738 23.8356 20.9466 24.6897 19.5637C25.5439 18.1808 25.997 16.5947 26 14.9771C26 14.7967 25.9271 14.6237 25.7972 14.4961C25.6674 14.3685 25.4913 14.2969 25.3077 14.2969ZM20.9358 10.2352C21.0944 10.3627 21.2464 10.4973 21.3918 10.6391C19.5489 11.276 18.0259 12.5851 17.1385 14.2952H14.5856C15.0183 13.1035 15.8149 12.0721 16.8666 11.3419C17.9183 10.6118 19.1738 10.2184 20.4615 10.2156C20.6199 10.2156 20.7783 10.2233 20.9358 10.2352ZM18.7412 14.2969C19.5805 13.0597 20.8503 12.1657 22.3126 11.7827C22.7907 12.5467 23.0907 13.4054 23.191 14.2969H18.7412ZM17 8.85521C17.5555 8.85571 18.1085 8.9292 18.6442 9.07373C17.3396 9.3917 16.1433 10.042 15.176 10.9589C14.2087 11.8759 13.5045 13.0273 13.1343 14.2969H10.809C10.9808 12.8012 11.7067 11.4198 12.8485 10.4162C13.9903 9.41265 15.468 8.857 17 8.85521Z" fill="#FF7878"/>
</svg>
