<svg width="33" height="32" viewBox="0 0 33 32" fill="none" xmlns="http://www.w3.org/2000/svg">
<rect width="33" height="32" rx="4" fill="#FFF7F7"/>
<path d="M21.9582 25H23.3164C24.0036 25 24.5682 24.4682 24.65 23.7973L26 10.3136H21.9091V7H20.2973V10.3136H16.2309L16.4764 12.2282C17.8755 12.6127 19.1845 13.3082 19.97 14.0773C21.1482 15.2391 21.9582 16.4418 21.9582 18.4055V25ZM8 24.1818V23.3636H20.2973V24.1818C20.2973 24.6236 19.9291 25 19.4545 25H8.81818C8.36818 25 8 24.6236 8 24.1818ZM20.2973 18.4545C20.2973 11.9091 8 11.9091 8 18.4545H20.2973ZM8 20.0909H20.2727V21.7273H8V20.0909Z" fill="#FF7878"/>
</svg>
