<svg width="61" height="14" viewBox="0 0 61 14" fill="none" xmlns="http://www.w3.org/2000/svg">
<path d="M5.88776 7.85864H10.2745C10.2486 8.33767 10.1709 8.77785 10.0286 9.15331C9.84744 9.61939 9.58864 10.0207 9.26514 10.3573C8.94163 10.681 8.56637 10.927 8.07465 11.1471C7.03943 11.5096 5.88776 11.5614 4.80079 11.0694C4.24436 10.7975 3.79146 10.4739 3.4162 10.0596C3.02799 9.65823 2.71743 9.15331 2.47157 8.53187C2.23864 7.94927 2.12218 7.31488 2.12218 6.64165C2.12218 5.96842 2.23864 5.32109 2.45863 4.75143C2.65273 4.19473 2.96329 3.67686 3.3515 3.23667C3.72676 2.82238 4.16672 2.48576 4.69727 2.21388C5.22782 1.9679 5.79718 1.83843 6.39243 1.83843C7.23354 1.83843 7.997 2.04558 8.66989 2.45987C9.34278 2.913 9.88626 3.45677 10.2874 4.1041L10.4556 4.36303L12.0602 3.21078L11.9049 2.97774C11.2709 2.03263 10.5074 1.30762 9.54982 0.776801C8.59225 0.258934 7.55704 0 6.44419 0C5.52544 0 4.67139 0.168307 3.89498 0.491974C3.09269 0.828588 2.40687 1.29467 1.85044 1.87727C1.26813 2.47282 0.828169 3.15899 0.504665 3.98758C0.168222 4.79027 0 5.6836 0 6.64165C0 7.59971 0.181162 8.57071 0.530546 9.3734C0.866989 10.189 1.34577 10.9011 1.94102 11.4837C2.51039 12.0404 3.20915 12.4936 3.9985 12.8172C4.81373 13.1279 5.61602 13.2704 6.44419 13.2704C7.36294 13.2704 8.21699 13.115 8.98045 12.7913C9.73098 12.4547 10.3392 12.0275 10.8697 11.4708C11.3614 10.9141 11.7496 10.2279 12.0343 9.46403C12.2931 8.72607 12.4225 7.88453 12.4225 6.99121V5.98137H5.91364V7.83275L5.88776 7.85864Z" fill="#2B2B2B"/>
<path d="M21.0538 8.97205C21.028 9.3734 20.9374 9.73591 20.7821 10.0466C20.6009 10.3832 20.4068 10.6422 20.1869 10.8105C19.941 11.0047 19.6563 11.16 19.3716 11.2766C19.0352 11.3801 18.7505 11.4319 18.4788 11.4319C16.7577 11.4319 15.9554 10.5774 15.9554 8.73901V3.49561H13.8203V9.16625C13.8203 9.77475 13.9238 10.3185 14.1179 10.8234C14.325 11.3542 14.6226 11.7944 14.9979 12.1569C15.3861 12.5324 15.826 12.8043 16.3307 12.9985C16.8483 13.1927 17.4306 13.2962 18.0647 13.2962C18.6987 13.2962 19.3587 13.1797 20.0186 12.9337C20.4327 12.7525 20.808 12.5065 21.1444 12.1958L21.2221 12.9855H23.176V3.49561H21.0409V8.97205H21.0538Z" fill="#2B2B2B"/>
<path d="M28.52 10.8882C28.3647 10.7458 28.2871 10.5387 28.2871 10.2797V5.34705H30.5516V3.49567H28.2871V0.32373H26.152V3.49567H24.1592V5.34705H26.152V10.4739C26.152 10.8494 26.2167 11.1601 26.3461 11.4579C26.4625 11.7557 26.6437 12.0275 26.8766 12.2476C27.1095 12.4677 27.3425 12.636 27.6271 12.7784C27.9248 12.9079 28.2353 12.9726 28.5329 12.9726H30.7069V11.1213H29.2705C28.9341 11.1213 28.6753 11.0436 28.52 10.8882Z" fill="#2B2B2B"/>
<path d="M59.7188 6.21447C59.46 5.60598 59.1235 5.07516 58.6836 4.59614C58.2695 4.18184 57.7648 3.83228 57.1825 3.5604C56.5873 3.30147 55.992 3.18495 55.3709 3.18495C54.5039 3.18495 53.7016 3.34031 52.977 3.65103C52.5241 3.85818 52.1229 4.11711 51.7865 4.44078V0.32373H49.6514V12.9726H51.6053L51.7088 11.9499C52.0712 12.2994 52.5111 12.5972 53.0287 12.8173C53.7146 13.128 54.4392 13.2834 55.2415 13.2834C55.2803 13.2834 55.3191 13.2834 55.3709 13.2834C56.0309 13.2704 56.639 13.1409 57.2213 12.882C57.7648 12.6231 58.2824 12.2606 58.7224 11.8204C59.1494 11.3673 59.4729 10.8494 59.7447 10.2409C59.9776 9.61945 60.107 8.95917 60.107 8.26005C60.107 7.56093 59.9776 6.86181 59.7317 6.21447H59.7188ZM53.7404 11.1989C53.3652 11.0436 53.0676 10.8235 52.8217 10.5516C52.5629 10.2797 52.3688 9.95606 52.2394 9.56766C52.0971 9.17926 52.0194 8.75202 52.0194 8.26005C52.0194 7.76807 52.0971 7.31494 52.2394 6.90065C52.3688 6.51225 52.5629 6.17563 52.8088 5.89081C53.0546 5.61893 53.3781 5.41178 53.7275 5.25642C54.1287 5.10106 54.5427 5.02338 54.9956 5.02338C55.3968 5.02338 55.7979 5.10106 56.1861 5.24347C56.5355 5.39883 56.8461 5.61893 57.1049 5.86491C57.3637 6.16269 57.5837 6.51225 57.726 6.8877C57.8813 7.31494 57.9589 7.76807 57.9589 8.23416C57.9589 8.70024 57.8813 9.12748 57.726 9.54177C57.5707 9.93017 57.3766 10.2538 57.1049 10.5257C56.8461 10.7847 56.5355 11.0047 56.1861 11.1731C55.345 11.4967 54.478 11.4579 53.7275 11.1731L53.7404 11.1989Z" fill="#2B2B2B"/>
<path d="M33.8382 0.32373H31.6772V12.9726H33.8382V0.32373Z" fill="#2B2B2B"/>
<path d="M48.2538 3.49561H46.0928V12.9726H48.2538V3.49561Z" fill="#2B2B2B"/>
<path d="M33.8513 7.32901C34.0325 4.0276 38.0957 1.74899 40.5284 4.55842C41.913 6.00845 41.3048 8.42948 41.9907 9.85361C43.1165 11.6273 45.4327 11.2389 47.115 9.49111L47.3349 9.58173C47.2185 13.2715 41.1884 14.8122 39.8297 10.6693C39.2215 8.7143 40.2308 7.05713 39.325 5.47763C38.5227 4.15707 36.5299 4.18296 35.43 5.20575C34.8218 5.74951 34.356 6.53926 34.0713 7.36785L33.8384 7.32901H33.8513Z" fill="url(#paint0_linear_303_1241)"/>
<defs>
<linearGradient id="paint0_linear_303_1241" x1="44.4344" y1="13.1435" x2="38.0716" y2="4.91888" gradientUnits="userSpaceOnUse">
<stop stop-color="#FF7878"/>
<stop offset="1" stop-color="#FFA4A4"/>
</linearGradient>
</defs>
</svg>
