<svg width="26" height="24" viewBox="0 0 26 24" fill="none" xmlns="http://www.w3.org/2000/svg">
<path d="M22.6201 9.84965L14.9951 2.33174C13.7845 1.15176 11.8618 1.16419 10.6658 2.36768L7.73397 5.1137C10.1881 4.13217 13.1415 4.82295 14.2058 7.86184C15.2044 10.3218 13.2751 13.0041 13.4256 15.0912C13.9055 17.6037 16.5249 18.3465 19.2274 17.3896L22.6478 14.1552C23.8278 12.9454 23.8147 11.0233 22.6104 9.82741L22.6201 9.84965Z" fill="#FFA4A4"/>
<path d="M10.3726 15.0246C10.5765 12.3222 12.6275 10.7755 12.2818 8.38988C11.9373 6.3734 9.50859 5.52186 7.61668 6.15474C6.41154 6.5436 4.78386 8.09214 4.78386 8.09214L3.32788 9.57967C2.14788 10.7895 2.16095 12.7115 3.36526 13.9074L10.9902 21.4254C12.2008 22.6053 14.1235 22.5929 15.3195 21.3894L16.6708 20.0263C13.6964 20.599 10.16 18.8663 10.4045 15.0372L10.3726 15.0246Z" fill="#FF7878"/>
</svg>
